<svg xmlns="http://www.w3.org/2000/svg" version="1.0" width="512.000000pt" height="512.000000pt" viewBox="0 0 512.000000 512.000000" preserveAspectRatio="xMidYMid meet">

<g transform="translate(0.000000,512.000000) scale(0.100000,-0.100000)" fill="#000000" stroke="none">
<path d="M4126 4129 c-631 -98 -626 -97 -685 -182 -89 -131 -49 -297 90 -368 65 -33 103 -32 348 5 129 20 236 35 237 33 3 -3 -1270 -1504 -1315 -1550 l-28 -29 -439 383 c-241 210 -459 400 -484 422 -90 78 -164 99 -257 72 -49 -14 -69 -29 -135 -93 -168 -168 -1401 -1510 -1421 -1547 -30 -56 -30 -164 0 -221 25 -47 82 -101 129 -120 44 -19 146 -18 192 2 20 8 50 27 66 42 16 15 303 323 638 685 335 361 613 657 618 657 6 0 228 -191 495 -424 267 -233 503 -432 523 -442 58 -29 165 -26 222 6 36 20 211 221 834 953 434 510 791 926 793 923 2 -2 20 -109 38 -238 41 -279 53 -323 102 -373 144 -149 394 -73 427 130 10 59 -157 1173 -183 1223 -39 75 -110 124 -196 135 -25 3 -254 -28 -609 -84z"/>
</g>
</svg>